<svg width="13" height="14" viewBox="0 0 13 14" fill="none" xmlns="http://www.w3.org/2000/svg">
<path fill-rule="evenodd" clip-rule="evenodd" d="M0 0.777778C0 0.571498 0.0856024 0.373667 0.237975 0.227806C0.390349 0.0819442 0.597011 3.29854e-10 0.812499 3.29854e-10H2.03125C2.21796 -5.20289e-06 2.39898 0.0615476 2.54384 0.174303C2.68871 0.287059 2.78859 0.444137 2.82668 0.619111L3.20043 2.33333H12.1875C12.3082 2.33333 12.4275 2.3591 12.5365 2.40876C12.6456 2.45842 12.7417 2.53073 12.8179 2.62042C12.8941 2.71012 12.9484 2.81494 12.977 2.92727C13.0055 3.0396 13.0076 3.15661 12.9829 3.26978L11.9673 7.93644C11.9292 8.11142 11.8293 8.2685 11.6845 8.38125C11.5396 8.49401 11.3586 8.55556 11.1719 8.55556H4.55405L4.72305 9.33333H10.5625C11.0798 9.33359 11.5837 9.49143 12.0012 9.784C12.4186 10.0766 12.728 10.4887 12.8845 10.9608C13.041 11.4328 13.0366 11.9403 12.8718 12.4098C12.707 12.8792 12.3905 13.2863 11.968 13.5722C11.5455 13.858 11.0389 14.0077 10.5216 13.9997C10.0043 13.9916 9.5031 13.8262 9.09052 13.5274C8.67793 13.2286 8.37537 12.8119 8.22662 12.3375C8.07788 11.8632 8.09065 11.3558 8.26311 10.8889H6.36186C6.52003 11.318 6.54368 11.782 6.42989 12.2238C6.31611 12.6656 6.06987 13.0659 5.72147 13.3755C5.37307 13.685 4.93772 13.8903 4.46901 13.9661C4.0003 14.0418 3.51868 13.9847 3.08343 13.8018C2.64818 13.6189 2.2783 13.3181 2.01932 12.9366C1.76033 12.555 1.62354 12.1093 1.62579 11.6543C1.62803 11.1992 1.76922 10.7548 2.03195 10.3756C2.29469 9.99636 2.66752 9.69897 3.10456 9.52L1.36987 1.55556H0.812499C0.597011 1.55556 0.390349 1.47361 0.237975 1.32775C0.0856024 1.18189 0 0.984057 0 0.777778Z" fill="#B39DDB"/>
</svg>
