<svg width="13" height="14" viewBox="0 0 13 14" fill="none" xmlns="http://www.w3.org/2000/svg">
<path d="M0.722222 14V12.6H2.16667V10.5H1.44444C1.04722 10.5 0.707296 10.363 0.424667 10.0891C0.142037 9.81517 0.000481481 9.48547 0 9.1V7.7C0 7.315 0.141556 6.98553 0.424667 6.7116C0.707778 6.43767 1.0477 6.30047 1.44444 6.3H2.16667V4.2H0.722222V2.8H2.41944C2.72037 1.98333 3.24109 1.3125 3.98161 0.7875C4.72213 0.2625 5.56159 0 6.5 0C7.43841 0 8.27811 0.2625 9.01911 0.7875C9.76011 1.3125 10.2806 1.98333 10.5806 2.8H12.2778V4.2H10.8333V6.3H11.5556C11.9528 6.3 12.2929 6.4372 12.5761 6.7116C12.8592 6.986 13.0005 7.31547 13 7.7V9.1C13 9.485 12.8587 9.8147 12.5761 10.0891C12.2934 10.3635 11.9533 10.5005 11.5556 10.5H10.8333V12.6H12.2778V14H0.722222ZM8.2875 10.1325C8.78102 9.65417 9.02778 9.07667 9.02778 8.4C9.02778 7.72333 8.78102 7.14583 8.2875 6.6675C7.79398 6.18917 7.19815 5.95 6.5 5.95C5.80185 5.95 5.20602 6.18917 4.7125 6.6675C4.21898 7.14583 3.97222 7.72333 3.97222 8.4C3.97222 9.07667 4.21898 9.65417 4.7125 10.1325C5.20602 10.6108 5.80185 10.85 6.5 10.85C7.19815 10.85 7.79398 10.6108 8.2875 10.1325ZM5.733 9.1441C5.52211 8.9397 5.41667 8.69167 5.41667 8.4C5.41667 8.10833 5.52211 7.86053 5.733 7.6566C5.94389 7.45267 6.19955 7.35047 6.5 7.35C6.80044 7.34953 7.05635 7.45173 7.26772 7.6566C7.47909 7.86147 7.5843 8.10927 7.58333 8.4C7.58237 8.69073 7.47717 8.93877 7.26772 9.1441C7.05828 9.34943 6.80237 9.4514 6.5 9.45C6.19763 9.4486 5.94196 9.34663 5.733 9.1441Z" fill="#E67E22"/>
</svg>
