<svg width="14" height="14" viewBox="0 0 14 14" fill="none" xmlns="http://www.w3.org/2000/svg">
<path d="M9.46154 2.37813e-05C8.86455 -0.0019145 8.27313 0.11465 7.72159 0.342951C7.17005 0.571252 6.66939 0.906743 6.24866 1.32995L1.32558 6.24925C-0.44186 8.01533 -0.44186 10.8968 1.32558 12.6701C2.18426 13.5281 3.322 14 4.53846 14C5.75492 14 6.89267 13.5281 7.75134 12.6701L12.6744 7.75078C14.4419 5.98469 14.4419 3.10319 12.6744 1.32995C12.2537 0.906743 11.753 0.571252 11.2015 0.342951C10.6499 0.11465 10.0585 -0.0019145 9.46154 2.37813e-05ZM11.6583 6.73546L9.70483 8.68744L5.30411 4.29011L7.2576 2.33812C7.84436 1.75181 8.62433 1.43005 9.45438 1.43005C10.2844 1.43005 11.0644 1.75181 11.6512 2.33812C12.2321 2.92265 12.5581 3.71301 12.5581 4.53679C12.5581 5.36057 12.2321 6.15092 11.6512 6.73546H11.6583Z" fill="#F06292"/>
</svg>
