<svg width="13" height="14" viewBox="0 0 13 14" fill="none" xmlns="http://www.w3.org/2000/svg">
<path d="M8.30556 7.31851L8.76056 9.07072C8.83278 9.3467 8.49333 9.56493 8.21889 9.41731L6.5 8.49307L4.77389 9.41731C4.71304 9.45011 4.64268 9.46628 4.57157 9.46379C4.50046 9.4613 4.43175 9.44027 4.37399 9.40331C4.31624 9.36636 4.272 9.31512 4.24679 9.25597C4.22158 9.19683 4.21651 9.1324 4.23222 9.07072L4.69444 7.32493L3.17778 6.16321C3.12329 6.12227 3.08366 6.0679 3.06391 6.00696C3.04416 5.94603 3.04517 5.88126 3.0668 5.82083C3.08844 5.7604 3.12973 5.70703 3.18547 5.66744C3.24122 5.62785 3.30891 5.60382 3.38 5.59839L5.38778 5.44436L6.16778 3.80126C6.29056 3.53811 6.70944 3.53811 6.83222 3.80126L7.61222 5.43794L9.62 5.59198C9.69109 5.5974 9.75878 5.62143 9.81453 5.66102C9.87027 5.70061 9.91156 5.75398 9.9332 5.81441C9.95483 5.87484 9.95584 5.93961 9.93609 6.00055C9.91634 6.06148 9.87671 6.11585 9.82222 6.15679L8.30556 7.31851ZM0.859444 2.10682C0.339444 2.31221 0 2.77433 0 3.28138V6.29799C0 9.86017 2.77333 13.1913 6.5 14C10.2267 13.1913 13 9.86017 13 6.29799V3.28138C13 2.77433 12.6606 2.31221 12.1406 2.10682L7.085 0.110716C6.70944 -0.0369054 6.28333 -0.0369054 5.915 0.110716L0.859444 2.10682Z" fill="#7BAAF7"/>
</svg>
