<svg width="13" height="14" viewBox="0 0 13 14" fill="none" xmlns="http://www.w3.org/2000/svg">
<path d="M11.0474 7.58278V1.74987H6.4974V12.1126C7.27049 11.7503 8.00502 11.3252 8.6918 10.8428L8.6606 10.8638C10.2518 9.7462 11.0474 8.65253 11.0474 7.58278ZM12.9974 0.58329V7.58278C12.9952 8.12551 12.8758 8.66271 12.6458 9.16466L12.6568 9.13666C12.4431 9.63013 12.1556 10.0952 11.802 10.5191L11.8138 10.5039C11.4584 10.9209 11.0609 11.3075 10.6262 11.6588L10.6178 11.6658C10.2223 11.9912 9.8067 12.2963 9.373 12.5798L9.3327 12.6049C8.9401 12.8538 8.5306 13.0892 8.1042 13.3113C7.6778 13.5333 7.3749 13.6838 7.1955 13.7627C7.0161 13.8417 6.87223 13.9025 6.7639 13.9453C6.68104 13.9815 6.59005 14.0002 6.4979 14C6.40575 13.9998 6.31487 13.9807 6.2322 13.9441L6.23545 13.9453C6.12712 13.9025 5.98325 13.8417 5.80385 13.7627C5.62445 13.6838 5.32155 13.5333 4.89515 13.3113C4.46875 13.0892 4.05925 12.8538 3.66665 12.6049C3.21396 12.3121 2.78075 11.9958 2.36925 11.6576L2.379 11.6658C1.94771 11.3182 1.55281 10.936 1.19925 10.5237L1.183 10.5039C0.842462 10.0962 0.564181 9.64957 0.355553 9.17574L0.339953 9.13666C0.114803 8.64375 -0.00068328 8.11607 3.04112e-06 7.58336V0.58329C0.00520304 0.263064 0.293153 0.00466632 0.649353 0H12.35C12.7069 0.00466632 12.9948 0.263064 13 0.582707L12.9974 0.58329Z" fill="#81C995"/>
</svg>
