<svg width="16" height="16" viewBox="0 0 16 16" fill="none" xmlns="http://www.w3.org/2000/svg">
<path d="M2.75 9.75C2.97981 9.75 3.20738 9.70473 3.4197 9.61679C3.63202 9.52884 3.82493 9.39994 3.98744 9.23744C4.14994 9.07493 4.27884 8.88202 4.36679 8.6697C4.45474 8.45738 4.5 8.22981 4.5 8C4.5 8.46413 4.68437 8.90925 5.01256 9.23744C5.34075 9.56563 5.78587 9.75 6.25 9.75C6.71413 9.75 7.15925 9.56563 7.48744 9.23744C7.81563 8.90925 8 8.46413 8 8C8 8.46413 8.18437 8.90925 8.51256 9.23744C8.84075 9.56563 9.28587 9.75 9.75 9.75C10.2141 9.75 10.6592 9.56563 10.9874 9.23744C11.3156 8.90925 11.5 8.46413 11.5 8C11.5 8.46413 11.6844 8.90925 12.0126 9.23744C12.3408 9.56563 12.7859 9.75 13.25 9.75C13.7141 9.75 14.1592 9.56563 14.4874 9.23744C14.8156 8.90925 15 8.46413 15 8C15 11.8661 11.8661 15 8 15C4.1339 15 1 11.8661 1 8C1 8.46413 1.18437 8.90925 1.51256 9.23744C1.84075 9.56563 2.28587 9.75 2.75 9.75ZM9.4 4.15C9.4 4.5213 9.2525 4.8774 8.98995 5.13995C8.7274 5.4025 8.3713 5.55 8 5.55C7.6287 5.55 7.2726 5.4025 7.01005 5.13995C6.7475 4.8774 6.6 4.5213 6.6 4.15C6.6 3.3765 8 1 8 1C8 1 9.4 3.3765 9.4 4.15Z" fill="#4FC3F7" stroke="#4FC3F7" stroke-width="2" stroke-linecap="round" stroke-linejoin="round"/>
</svg>
