<svg width="13" height="15" viewBox="0 0 13 15" fill="none" xmlns="http://www.w3.org/2000/svg">
<path d="M10.25 3C9.90388 3 9.56554 3.10264 9.27775 3.29493C8.98997 3.48722 8.76566 3.76053 8.63321 4.0803C8.50076 4.40007 8.4661 4.75194 8.53363 5.09141C8.60115 5.43087 8.76782 5.74269 9.01256 5.98744C9.2573 6.23218 9.56913 6.39885 9.90859 6.46637C10.2481 6.5339 10.5999 6.49924 10.9197 6.36679C11.2395 6.23434 11.5128 6.01003 11.7051 5.72225C11.8974 5.43446 12 5.09612 12 4.75C12 4.28587 11.8156 3.84075 11.4874 3.51256C11.1592 3.18437 10.7141 3 10.25 3ZM10.25 5.5C10.1017 5.5 9.95666 5.45601 9.83332 5.3736C9.70999 5.29119 9.61386 5.17406 9.55709 5.03701C9.50033 4.89997 9.48547 4.74917 9.51441 4.60368C9.54335 4.4582 9.61478 4.32456 9.71967 4.21967C9.82456 4.11478 9.9582 4.04335 10.1037 4.01441C10.2492 3.98547 10.4 4.00032 10.537 4.05709C10.6741 4.11386 10.7912 4.20999 10.8736 4.33332C10.956 4.45666 11 4.60166 11 4.75C11 4.94891 10.921 5.13968 10.7803 5.28033C10.6397 5.42098 10.4489 5.5 10.25 5.5ZM6.5 8.63V2C6.5 1.46957 6.28929 0.960859 5.91421 0.585786C5.53914 0.210714 5.03043 0 4.5 0C3.96957 0 3.46086 0.210714 3.08579 0.585786C2.71071 0.960859 2.5 1.46957 2.5 2V8.63C1.88851 9.05579 1.42886 9.66562 1.18796 10.3707C0.947061 11.0758 0.937481 11.8394 1.16061 12.5504C1.38375 13.2613 1.82795 13.8825 2.42857 14.3235C3.02919 14.7645 3.75487 15.0023 4.5 15.0023C5.24513 15.0023 5.97081 14.7645 6.57143 14.3235C7.17205 13.8825 7.61625 13.2613 7.83939 12.5504C8.06252 11.8394 8.05294 11.0758 7.81204 10.3707C7.57114 9.66562 7.11149 9.05579 6.5 8.63ZM5.5 6H3.5V2C3.5 1.73478 3.60536 1.48043 3.79289 1.29289C3.98043 1.10536 4.23478 1 4.5 1C4.76522 1 5.01957 1.10536 5.20711 1.29289C5.39464 1.48043 5.5 1.73478 5.5 2V6Z" fill="#6E6E6E"/>
</svg>
