<svg width="23" height="23" viewBox="0 0 23 23" fill="none" xmlns="http://www.w3.org/2000/svg">
<path d="M18.8744 2.97915C19.2876 3.16243 19.55 3.57212 19.55 4.02493V18.9749C19.55 19.4277 19.2876 19.8374 18.8744 20.0207C18.4611 20.204 17.9831 20.1357 17.6417 19.8374L15.967 18.3748C14.4001 17.0056 12.42 16.2077 10.3464 16.1107V19.5499C10.3464 20.186 9.83249 20.6999 9.19639 20.6999H8.04639C7.4103 20.6999 6.89639 20.186 6.89639 19.5499V16.0999C4.35921 16.0999 2.29999 14.0407 2.29999 11.4999C2.29999 8.95915 4.35921 6.89993 6.89999 6.89993H9.93671C12.1576 6.89274 14.2995 6.08415 15.9706 4.62508L17.6453 3.16243C17.9831 2.86415 18.4683 2.79587 18.878 2.97915H18.8744ZM10.35 13.7999V13.8071C12.8764 13.9041 15.3022 14.8313 17.25 16.4449V6.55134C15.3022 8.16493 12.8764 9.09212 10.35 9.18915V13.7999Z" fill="#32D34B"/>
</svg>
