<svg width="24" height="24" viewBox="0 0 24 24" fill="none" xmlns="http://www.w3.org/2000/svg">
<path d="M8.3635 13.5C9.5755 12.288 10.7877 11.682 12 11.682C13.2123 11.682 14.4245 12.288 15.6365 13.5C17.0508 12.288 18.1113 11.682 18.818 11.682C19.5253 11.682 20.586 12.288 22 13.5C22 7.977 17.523 3.5 12 3.5C6.477 3.5 2 7.977 2 13.5C3.41433 12.288 4.475 11.682 5.182 11.682C5.889 11.682 6.9495 12.288 8.3635 13.5Z" stroke="#32D34B" stroke-width="2" stroke-linejoin="round"/>
<path d="M12 12V19.277C12 20.784 13.243 22.0055 14.75 22.0055C16.257 22.0055 17.5 20.784 17.5 19.277M12 1.5V3.5" stroke="#32D34B" stroke-width="2" stroke-linecap="round" stroke-linejoin="round"/>
</svg>
