<svg width="14" height="14" viewBox="0 0 14 14" fill="none" xmlns="http://www.w3.org/2000/svg">
<path fill-rule="evenodd" clip-rule="evenodd" d="M6.59663 12.9859L6.59925 12.9885L6.601 12.9902C6.71582 13.0773 6.85594 13.1244 7 13.1244C7.14406 13.1244 7.28418 13.0773 7.399 12.9902L7.40075 12.9885L7.40338 12.9859L7.41387 12.978C7.47019 12.9345 7.52562 12.8899 7.58012 12.8441C8.2325 12.2942 8.83187 11.6842 9.37037 11.0224C10.3337 9.83063 11.375 8.09812 11.375 6.125C11.375 4.96468 10.9141 3.85188 10.0936 3.03141C9.27312 2.21094 8.16032 1.75 7 1.75C5.83968 1.75 4.72688 2.21094 3.90641 3.03141C3.08594 3.85188 2.625 4.96468 2.625 6.125C2.625 8.09812 3.66625 9.83063 4.6305 11.0224C5.169 11.6842 5.76837 12.2942 6.42075 12.8441L6.58612 12.978L6.59663 12.9859ZM7 7.4375C7.17236 7.4375 7.34303 7.40355 7.50227 7.33759C7.66151 7.27163 7.8062 7.17495 7.92808 7.05308C8.04995 6.9312 8.14663 6.78651 8.21259 6.62727C8.27855 6.46803 8.3125 6.29736 8.3125 6.125C8.3125 5.95264 8.27855 5.78197 8.21259 5.62273C8.14663 5.46349 8.04995 5.3188 7.92808 5.19692C7.8062 5.07505 7.66151 4.97837 7.50227 4.91241C7.34303 4.84645 7.17236 4.8125 7 4.8125C6.6519 4.8125 6.31806 4.95078 6.07192 5.19692C5.82578 5.44306 5.6875 5.7769 5.6875 6.125C5.6875 6.4731 5.82578 6.80694 6.07192 7.05308C6.31806 7.29922 6.6519 7.4375 7 7.4375Z" fill="#979A9D"/>
</svg>
