<svg width="24" height="24" viewBox="0 0 24 24" fill="none" xmlns="http://www.w3.org/2000/svg">
<path fill-rule="evenodd" clip-rule="evenodd" d="M3 6C3 4.34315 4.34315 3 6 3H18C19.6569 3 21 4.34315 21 6V18C21 19.6569 19.6569 21 18 21H6C4.34315 21 3 19.6569 3 18V6ZM13.25 12C13.25 12.5523 12.8023 13 12.25 13C11.6977 13 11.25 12.5523 11.25 12V7C11.25 6.44772 11.6977 6 12.25 6C12.8023 6 13.25 6.44772 13.25 7V12ZM13.5 16C13.5 15.28 12.964 14.752 12.25 14.752C11.536 14.752 11 15.28 11 15.984C11 16.72 11.52 17.248 12.25 17.248C12.964 17.248 13.5 16.72 13.5 16Z" fill="#FFCD29"/>
</svg>
