<svg width="24" height="24" viewBox="0 0 24 24" fill="none" xmlns="http://www.w3.org/2000/svg">
<path d="M6.39144 7.9001C6.54158 6.54551 7.18603 5.29388 8.20144 4.3848C9.21684 3.47573 10.5318 2.97308 11.8947 2.97308C13.2576 2.97308 14.5726 3.47573 15.588 4.3848C16.6034 5.29388 17.2479 6.54551 17.398 7.9001L17.6478 10.1462L17.6538 10.2027C17.7817 11.3169 18.1446 12.3912 18.7183 13.3548L18.7481 13.4044L19.32 14.3589C19.8404 15.2253 20.1001 15.6584 20.0436 16.0143C20.0063 16.2505 19.8848 16.4652 19.7016 16.6189C19.4251 16.8509 18.9196 16.8509 17.9095 16.8509H5.87996C4.86891 16.8509 4.36338 16.8509 4.08782 16.6199C3.90405 16.4661 3.78221 16.251 3.74486 16.0143C3.68935 15.6584 3.94905 15.2253 4.46845 14.3589L5.04237 13.4034L5.07211 13.3538C5.64539 12.3905 6.00789 11.3165 6.1357 10.2027L6.14165 10.1462L6.39144 7.9001Z" stroke="#34393F" stroke-width="2"/>
<path d="M7.92982 16.8509C7.92982 17.9025 8.34756 18.9109 9.09112 19.6545C9.83469 20.3981 10.8432 20.8158 11.8947 20.8158C12.9463 20.8158 13.9548 20.3981 14.6984 19.6545C15.4419 18.9109 15.8596 17.9025 15.8596 16.8509" stroke="#34393F" stroke-width="2" stroke-linecap="round"/>
</svg>
