<svg width="120" height="22" viewBox="0 0 120 22" fill="none" xmlns="http://www.w3.org/2000/svg">
<path d="M3.34073 0.270074H11.4345C12.911 0.270074 14.1457 0.531142 15.1386 1.05328C16.1405 1.57542 16.8509 2.32711 17.2697 3.30837C17.699 4.28063 17.8089 5.42843 17.5993 6.75178C17.3883 8.08413 16.911 9.22743 16.1674 10.1817C15.4329 11.1359 14.475 11.8606 13.2937 12.3558L16.2399 19.8232H11.1266L8.55501 13.0984H5.95735L4.89226 19.8232H0.243818L3.34073 0.270074ZM9.00003 9.42548C11.2422 9.42548 12.5045 8.53425 12.7868 6.75178C12.9308 5.84254 12.752 5.15836 12.2505 4.69924C11.7596 4.23112 10.9627 3.99705 9.85981 3.99705H7.39887L6.53909 9.42548H9.00003ZM23.3284 20.0933C21.788 20.0933 20.5005 19.7917 19.4658 19.1885C18.4417 18.5764 17.718 17.7077 17.2946 16.5824C16.8727 15.4481 16.7844 14.1067 17.0296 12.5583C17.2677 11.0549 17.7781 9.73156 18.5608 8.58826C19.3448 7.43596 20.3382 6.54472 21.5409 5.91456C22.7527 5.28439 24.0923 4.96931 25.5597 4.96931C26.9634 4.96931 28.1573 5.25739 29.1416 5.83354C30.135 6.40969 30.8433 7.26041 31.2667 8.38571C31.6991 9.511 31.7899 10.8659 31.5389 12.4503L31.355 13.6116H21.4019L21.389 13.6926C21.2393 14.6379 21.393 15.3941 21.85 15.9612C22.3085 16.5193 23.0026 16.7984 23.9323 16.7984C24.5521 16.7984 25.1045 16.6769 25.5896 16.4338C26.0853 16.1818 26.4637 15.8352 26.725 15.3941H31.018C30.6846 16.3483 30.1562 17.181 29.4329 17.8922C28.711 18.5944 27.8272 19.139 26.7815 19.5261C25.7464 19.9042 24.5953 20.0933 23.3284 20.0933ZM27.4855 10.9379C27.5577 10.4247 27.5073 9.96562 27.3345 9.56052C27.1617 9.15541 26.8835 8.84033 26.4998 8.61527C26.1176 8.38121 25.6668 8.26418 25.1472 8.26418C24.6095 8.26418 24.1033 8.38121 23.6287 8.61527C23.1633 8.84933 22.7709 9.16891 22.4515 9.57402C22.1321 9.97913 21.9234 10.4337 21.8253 10.9379H27.4855ZM41.5127 9.69555C41.5259 9.20943 41.3503 8.82232 40.9857 8.53425C40.6303 8.24617 40.1427 8.10213 39.5229 8.10213C38.9396 8.10213 38.4327 8.22367 38.0023 8.46673C37.5824 8.70079 37.3478 9.00237 37.2984 9.37147C37.1713 10.0016 37.6694 10.4247 38.7927 10.6408L41.5236 11.1809C42.9545 11.469 43.9787 11.9371 44.596 12.5853C45.2226 13.2335 45.4562 14.0887 45.2971 15.151C45.1326 16.1322 44.6995 16.9965 43.9978 17.7437C43.3052 18.4909 42.4112 19.0715 41.3156 19.4856C40.2215 19.8907 39.0091 20.0933 37.6784 20.0933C36.2839 20.0933 35.1068 19.8997 34.1473 19.5126C33.1969 19.1255 32.4871 18.5719 32.0178 17.8517C31.5576 17.1315 31.3544 16.2853 31.4082 15.313H36.0019C36.0012 15.8352 36.193 16.2358 36.5772 16.5148C36.9705 16.7939 37.5135 16.9335 38.2062 16.9335C38.8442 16.9335 39.3725 16.8209 39.7909 16.5959C40.2199 16.3618 40.4711 16.0422 40.5443 15.6371C40.5774 15.313 40.46 15.0475 40.192 14.8404C39.9254 14.6243 39.4838 14.4488 38.8672 14.3138L36.397 13.8546C34.9814 13.5846 33.9608 13.0939 33.3352 12.3828C32.7109 11.6626 32.4971 10.7398 32.6935 9.61453C32.837 8.65128 33.2234 7.82306 33.8527 7.12988C34.4925 6.42769 35.3339 5.89205 36.3767 5.52296C37.4196 5.15386 38.6063 4.96931 39.9371 4.96931C41.2587 4.96931 42.3719 5.16286 43.2767 5.54996C44.1921 5.92806 44.8624 6.47271 45.2875 7.18389C45.7231 7.88608 45.8959 8.7233 45.8057 9.69555H41.5127ZM57.9052 12.8554L58.9265 14.4353C59.3891 13.9312 59.7792 13.31 60.0966 12.5718C60.4232 11.8336 60.6613 10.9919 60.811 10.0466C61.0135 8.76831 60.9992 7.67902 60.7681 6.77879C60.5461 5.87855 60.1205 5.19887 59.4914 4.73975C58.8714 4.28063 58.0783 4.05107 57.1122 4.05107C56.146 4.05107 55.2757 4.28063 54.5012 4.73975C53.7357 5.19887 53.0949 5.87855 52.5786 6.77879C52.0714 7.67902 51.7166 8.76831 51.5141 10.0466C51.3117 11.325 51.3214 12.4143 51.5434 13.3145C51.7746 14.2147 52.2001 14.8944 52.8201 15.3535C53.4492 15.8127 54.2468 16.0422 55.213 16.0422C55.5229 16.0422 55.7946 16.0242 56.0282 15.9882L54.1044 12.8554H57.9052ZM65.5688 10.0466C65.3022 11.7301 64.7959 13.229 64.05 14.5433C63.3146 15.8487 62.3894 16.9425 61.2744 17.8247L63.6125 21.3626H59.3742L58.1338 19.5261C57.0075 19.9042 55.8201 20.0933 54.5714 20.0933C52.7758 20.0933 51.2298 19.6972 49.9334 18.905C48.637 18.1128 47.6984 16.9605 47.1176 15.4481C46.546 13.9357 46.4255 12.1352 46.7563 10.0466C47.0886 7.94909 47.78 6.14412 48.8308 4.63172C49.8906 3.11932 51.1935 1.97152 52.7394 1.18832C54.2868 0.396107 55.9582 2.70596e-06 57.7538 2.70596e-06C59.5403 2.70596e-06 61.0817 0.396107 62.3781 1.18832C63.685 1.97152 64.6243 3.11932 65.196 4.63172C65.7768 6.14412 65.9011 7.94909 65.5688 10.0466ZM76.1135 11.8021H66.9806L67.5367 8.29118H76.6695L76.1135 11.8021ZM79.8212 0.270074H87.9149C89.3733 0.270074 90.5999 0.553648 91.5947 1.1208C92.5895 1.68795 93.298 2.48016 93.7202 3.49742C94.1438 4.50569 94.2509 5.67149 94.0413 6.99484C93.8288 8.3362 93.3458 9.51551 92.5922 10.5328C91.8401 11.541 90.8691 12.3197 89.6793 12.8689C88.4894 13.418 87.1471 13.6926 85.6523 13.6926H82.3437L81.3727 19.8232H76.7243L79.8212 0.270074ZM85.3821 10.0466C86.4576 10.0466 87.3306 9.77207 88.0009 9.22293C88.6712 8.67378 89.0805 7.93109 89.2288 6.99484C89.377 6.0586 89.2016 5.3249 88.7024 4.79376C88.2032 4.26262 87.4158 3.99705 86.3403 3.99705H83.8793L82.9212 10.0466H85.3821ZM99.5081 20.0933C97.9859 20.0933 96.7097 19.7782 95.6793 19.148C94.658 18.5179 93.9364 17.6356 93.5145 16.5013C93.094 15.358 93.0028 14.0347 93.2409 12.5313C93.479 11.0279 93.9887 9.70906 94.7699 8.57476C95.5526 7.43146 96.5543 6.54472 97.7752 5.91456C99.0053 5.28439 100.381 4.96931 101.903 4.96931C103.426 4.96931 104.697 5.28439 105.719 5.91456C106.749 6.54472 107.474 7.43146 107.895 8.57476C108.317 9.70906 108.409 11.0279 108.171 12.5313C107.933 14.0347 107.422 15.358 106.639 16.5013C105.858 17.6356 104.853 18.5179 103.623 19.148C102.402 19.7782 101.03 20.0933 99.5081 20.0933ZM100.079 16.6634C100.653 16.6634 101.172 16.4923 101.636 16.1503C102.102 15.7992 102.49 15.3085 102.799 14.6784C103.118 14.0482 103.342 13.3235 103.472 12.5043C103.602 11.6851 103.607 10.9604 103.488 10.3302C103.378 9.70005 103.145 9.21393 102.789 8.87184C102.435 8.52074 101.97 8.3452 101.396 8.3452C100.512 8.3452 99.764 8.7233 99.152 9.4795C98.5492 10.2357 98.1479 11.244 97.9483 12.5043C97.7487 13.7646 97.8306 14.7729 98.1939 15.5291C98.5663 16.2853 99.1945 16.6634 100.079 16.6634ZM118.072 8.50724H115.365L114.3 15.232C114.226 15.7001 114.298 16.0197 114.517 16.1908C114.736 16.3618 115.101 16.4473 115.611 16.4473C115.994 16.4473 116.462 16.4293 117.014 16.3933L116.463 19.8772C116.044 19.9312 115.668 19.9718 115.336 19.9988C115.013 20.0258 114.614 20.0393 114.14 20.0393C112.463 20.0393 111.229 19.6882 110.438 18.986C109.657 18.2748 109.386 17.1945 109.625 15.7451L110.771 8.50724H108.775L109.306 5.15836H111.302L111.858 1.64744H116.451L115.895 5.15836H118.602L118.072 8.50724Z" fill="#32D34B"/>
</svg>
