<svg width="21" height="21" viewBox="0 0 21 21" fill="none" xmlns="http://www.w3.org/2000/svg">
<path d="M18.3749 18.3749L14.5748 14.5748M14.5748 14.5748C15.2248 13.9248 15.7405 13.1531 16.0923 12.3038C16.4441 11.4545 16.6251 10.5442 16.6251 9.62494C16.6251 8.70566 16.4441 7.79538 16.0923 6.94608C15.7405 6.09678 15.2248 5.32509 14.5748 4.67506C13.9248 4.02503 13.1531 3.5094 12.3038 3.15761C11.4545 2.80582 10.5442 2.62476 9.62494 2.62476C8.70566 2.62476 7.79538 2.80582 6.94608 3.15761C6.09678 3.5094 5.32509 4.02503 4.67506 4.67506C3.36227 5.98785 2.62476 7.76837 2.62476 9.62494C2.62476 11.4815 3.36227 13.262 4.67506 14.5748C5.98785 15.8876 7.76837 16.6251 9.62494 16.6251C11.4815 16.6251 13.262 15.8876 14.5748 14.5748Z" stroke="#34393F" stroke-width="1.8" stroke-linecap="round" stroke-linejoin="round"/>
</svg>
